<svg width="78" height="78" viewBox="0 0 78 78" fill="none" xmlns="http://www.w3.org/2000/svg">
<rect width="78" height="78" rx="39" fill="#D11618"/>
<path d="M39.5 69.9999C28.0196 69.9141 16.5 49.9999 16.5 49.9999C16.5 49.9999 29.7142 62.6206 39.5 62.4999C49.8481 62.3722 61.5 47.4999 61.5 47.4999C61.5 47.4999 51.6531 70.0906 39.5 69.9999Z" fill="#EEF1F9"/>
<circle cx="39.5" cy="37.4999" r="5" fill="#EEF1F9"/>
<path d="M28.5153 34.9999C26.9829 44.5964 38.0153 57.9999 38.0153 57.9999C38.0153 57.9999 20.9179 46.038 21.5153 34.9999C21.8093 29.5685 23.777 26.6997 26.5153 21.9999C30.2713 15.5533 39.5153 7.99988 39.5153 7.99988C39.5153 7.99988 47.5801 14.8255 51.0153 20.4999C54.1518 25.6807 56.3328 28.9464 56.5153 34.9999C56.8418 45.8263 41.0153 57.9999 41.0153 57.9999C41.0153 57.9999 50.4337 44.4034 49.0153 34.9999C47.9063 27.6477 39.5153 18.4999 39.5153 18.4999C39.5153 18.4999 29.7365 27.3525 28.5153 34.9999Z" fill="#EEF1F9"/>
</svg>
